<svg width="47" height="48" viewBox="0 0 47 48" fill="none" xmlns="http://www.w3.org/2000/svg">
<path fill-rule="evenodd" clip-rule="evenodd" d="M2.36897 25.374L23.0021 3.79551C24.8871 1.82424 26.3142 0.988865 29.039 1.00011L40.3212 1.04822C41.6477 1.05385 43.0304 1.21255 43.9295 2.08228C44.8642 2.98576 45.1472 4.47218 45.2016 5.77054L45.6671 16.8266C45.7814 19.5476 45.0366 21.0959 43.1541 23.0647L22.521 44.6431C20.6372 46.6131 17.4806 46.685 15.5094 44.7999L2.52579 32.3856C0.554518 30.5005 0.483914 27.3452 2.36897 25.374Z" stroke="white" stroke-width="1.9199" stroke-miterlimit="22.9256" stroke-linecap="round" stroke-linejoin="round"/>
<path d="M35.4832 14.8997C37.7182 14.8997 39.5301 13.0878 39.5301 10.8528C39.5301 8.61777 37.7182 6.80591 35.4832 6.80591C33.2481 6.80591 31.4363 8.61777 31.4363 10.8528C31.4363 13.0878 33.2481 14.8997 35.4832 14.8997Z" stroke="white" stroke-width="1.9199" stroke-miterlimit="22.9256" stroke-linecap="round" stroke-linejoin="round"/>
<path d="M15.1519 28.6586C16.2095 28.6586 17.0669 27.8012 17.0669 26.7435C17.0669 25.6859 16.2095 24.8285 15.1519 24.8285C14.0942 24.8285 13.2368 25.6859 13.2368 26.7435C13.2368 27.8012 14.0942 28.6586 15.1519 28.6586Z" stroke="white" stroke-width="1.9199" stroke-miterlimit="22.9256" stroke-linecap="round" stroke-linejoin="round"/>
<path d="M25.6406 28.4911C26.6983 28.4911 27.5557 27.6337 27.5557 26.5761C27.5557 25.5184 26.6983 24.661 25.6406 24.661C24.583 24.661 23.7256 25.5184 23.7256 26.5761C23.7256 27.6337 24.583 28.4911 25.6406 28.4911Z" stroke="white" stroke-width="1.9199" stroke-miterlimit="22.9256" stroke-linecap="round" stroke-linejoin="round"/>
<path d="M20.2061 18.6536L20.6141 34.6368" stroke="white" stroke-width="1.9199" stroke-miterlimit="22.9256" stroke-linecap="round" stroke-linejoin="round"/>
</svg>
