<svg width="31" height="48" viewBox="0 0 31 48" fill="none" xmlns="http://www.w3.org/2000/svg">
<path fill-rule="evenodd" clip-rule="evenodd" d="M11.4776 21.7768C12.6241 21.7768 13.5595 20.8415 13.5595 19.695C13.5595 18.5484 12.6241 17.6131 11.4776 17.6131C10.3311 17.6131 9.39575 18.5484 9.39575 19.695C9.39575 20.8415 10.3311 21.7768 11.4776 21.7768Z" stroke="white" stroke-width="1.9199" stroke-miterlimit="22.9256" stroke-linecap="round" stroke-linejoin="round"/>
<path fill-rule="evenodd" clip-rule="evenodd" d="M19.4881 29.8913C20.6346 29.8913 21.57 28.9559 21.57 27.8094C21.57 26.6629 20.6346 25.7275 19.4881 25.7275C18.3416 25.7275 17.4062 26.6629 17.4062 27.8094C17.4062 28.9559 18.3416 29.8913 19.4881 29.8913Z" stroke="white" stroke-width="1.9199" stroke-miterlimit="22.9256" stroke-linecap="round" stroke-linejoin="round"/>
<path d="M21.6288 17.5887L9.37939 29.9156" stroke="white" stroke-width="1.9199" stroke-miterlimit="22.9256" stroke-linecap="round" stroke-linejoin="round"/>
<path fill-rule="evenodd" clip-rule="evenodd" d="M1 23.7625C1 18.5022 1.53921 14.2485 2.61826 11.0326C3.70793 7.80543 5.31619 5.32619 7.45304 3.59359C9.5799 1.86099 12.2672 1 15.5043 1C17.8905 1 19.9861 1.47735 21.8018 2.44206C23.6069 3.40739 25.1008 4.7976 26.263 6.61267C27.4251 8.41775 28.3379 10.6283 29.0021 13.2319C29.6763 15.8361 30.0087 19.3532 30.0087 23.7625C30.0087 28.9921 29.4695 33.2246 28.4004 36.4411C27.332 39.6676 25.7237 42.1475 23.5863 43.8901C21.4594 45.6333 18.7621 46.5049 15.5043 46.5049C11.2194 46.5049 7.84792 44.9798 5.39929 41.9194C2.46268 38.1837 1 32.1349 1 23.7625Z" stroke="white" stroke-width="1.9199" stroke-miterlimit="22.9256" stroke-linecap="round" stroke-linejoin="round"/>
</svg>
