<svg width="31" height="48" viewBox="0 0 31 48" fill="none" xmlns="http://www.w3.org/2000/svg">
<path fill-rule="evenodd" clip-rule="evenodd" d="M1 23.7625C1 18.5022 1.53921 14.2485 2.61826 11.0326C3.7073 7.80543 5.31557 5.32619 7.45304 3.59359C9.5799 1.86099 12.2672 1 15.5043 1C17.8905 1 19.9861 1.47735 21.8018 2.44206C23.6069 3.40739 25.1008 4.7976 26.2629 6.61267C27.4251 8.41775 28.3379 10.6283 29.0021 13.2319C29.6763 15.8361 30.0087 19.3532 30.0087 23.7625C30.0087 28.9921 29.4695 33.2246 28.4004 36.4411C27.332 39.6676 25.7237 42.1475 23.5863 43.8901C21.4594 45.6333 18.7621 46.5049 15.5043 46.5049C11.2194 46.5049 7.84793 44.9798 5.39867 41.9194C2.46269 38.1837 1 32.1349 1 23.7625Z" stroke="white" stroke-width="1.9199" stroke-miterlimit="22.9256" stroke-linecap="round" stroke-linejoin="round"/>
<path d="M11.1557 30.6429V16.8971H17.1595C23.7056 16.8971 23.2383 25.0665 17.1595 25.0665H9.11316" stroke="white" stroke-width="1.9199" stroke-miterlimit="22.9256" stroke-linecap="round" stroke-linejoin="round"/>
<path d="M9.11316 27.7281H18.1186" stroke="white" stroke-width="1.9199" stroke-miterlimit="22.9256" stroke-linecap="round" stroke-linejoin="round"/>
</svg>
