<svg width="183" height="55" viewBox="0 0 183 55" fill="none" xmlns="http://www.w3.org/2000/svg">
<path d="M183 0H0V55H183V0Z" fill="#FF6600"/>
<path d="M58.0722 18C55.2889 18 52.0068 18.0787 50.0374 19.8901C48.0416 21.7273 47.9631 24.9299 47.9631 27.3971C47.9631 29.8122 48.0416 33.0408 50.0374 34.9043C51.98 36.7196 55.3411 36.7983 58.0722 36.7983C60.8026 36.7983 64.1642 36.7196 66.1071 34.9043C68.1026 33.0408 68.1816 29.8122 68.1816 27.3971C68.1816 24.9299 68.1026 21.7273 66.1071 19.8901C64.1376 18.079 60.8555 18 58.0722 18ZM62.0896 27.3973C62.0896 28.867 62.0896 29.8911 61.407 30.8885C60.5926 32.0964 59.6211 32.227 58.0722 32.227C56.5755 32.227 55.5252 32.0964 54.7374 30.8885C54.1338 29.9699 54.0548 28.8412 54.0548 27.3973C54.0548 25.875 54.0809 24.8769 54.7374 23.906C55.5252 22.6985 56.5492 22.5674 58.0722 22.5674C59.6213 22.5674 60.5926 22.6985 61.407 23.906C62.116 24.9299 62.0896 25.7961 62.0896 27.3973Z" fill="white"/>
<path d="M36.9342 30.8883V18.2104H31V34.222C31 34.9831 31.394 35.6658 31.8143 36.007C32.3129 36.4272 33.1011 36.5847 33.8099 36.5847H47.7002V32.017H38.1686C37.3321 32.017 36.9342 31.7832 36.9342 30.8883Z" fill="white"/>
<path d="M84.6977 30.9931C86.1157 30.9931 87.4283 30.337 88.111 28.7094C88.7412 27.2134 88.7936 25.0345 88.7936 24.1946C88.7936 22.8035 88.6362 21.1761 87.8487 19.9945C86.6403 18.21 84.6187 18.21 83.4633 18.21H73.459C72.7498 18.21 71.6736 18.3411 70.991 19.1022C70.3347 19.837 70.2817 20.8875 70.2817 21.7272V36.5842H76.2162V24.2207C76.2162 23.7742 76.1901 23.4072 76.5578 23.0654C76.8201 22.8029 77.1354 22.7769 77.4767 22.7769H80.7588C81.3103 22.7769 81.9666 22.7505 82.4133 23.2229C83.0138 23.8245 82.9848 25.6338 82.4659 26.2938C82.0454 26.793 81.3366 26.8454 80.8117 26.8454H79.8665C78.3434 26.8454 77.2144 27.6858 77.2144 28.919V29.3131C77.2144 30.2054 77.8707 30.9929 78.4749 31.8064L82.0195 36.5842H89.1618L83.9105 30.9929H84.6977V30.9931Z" fill="white"/>
<path d="M140.731 18C137.895 18 137.107 18.8662 136.53 20.2308L129.725 36.5843H135.979L137.422 32.8044H144.04L145.483 36.5843H151.733L144.932 20.2308C144.066 18.1838 142.49 18 140.731 18ZM138.84 28.6048L140.495 23.9586C140.702 23.442 140.76 23.4375 140.967 23.9586L142.622 28.6048H138.84Z" fill="white"/>
<path d="M124.635 29.1558C124.635 29.2872 124.635 29.6018 124.347 29.6018C124.136 29.6018 123.979 29.3396 123.847 29.1558L117.152 19.7063C116.023 18.105 114.263 18 113.266 18C111.139 18 109.143 18.8662 109.143 21.2547V36.5846H113.712V25.6913C113.712 25.166 114.001 25.166 114.08 25.166C114.264 25.166 114.448 25.4285 114.579 25.6123L121.222 34.983C122.378 36.6153 123.822 36.7986 125.214 36.7986C129.073 36.7986 129.204 34.1697 129.204 33.5136V18.2104H124.636V29.1558H124.635Z" fill="white"/>
<path d="M97.1961 31.8859C97.0647 31.7808 96.9332 31.5707 96.9332 31.2032V29.2083H106.964V25.2185H96.9332V23.8276C96.9332 23.5914 96.9332 23.1715 97.2219 22.9351C97.4323 22.751 97.7995 22.6723 98.141 22.6723H107.226V18.2104H94.0188C93.3622 18.2104 92.4699 18.3155 91.7865 18.9455C91.1041 19.5756 90.999 20.3365 90.999 21.045V33.6449C90.999 34.5108 90.999 35.2456 91.8397 35.9546C92.5489 36.5323 93.3098 36.5849 94.0712 36.5849H107.305V32.1223H98.3249C97.9572 32.122 97.4847 32.1484 97.1961 31.8859Z" fill="white"/>
<path d="M149.759 19.5648C149.759 19.5088 149.763 19.4684 149.768 19.4441C149.774 19.4215 149.782 19.4071 149.789 19.4048C149.798 19.3972 149.811 19.392 149.83 19.3884C149.849 19.3858 149.868 19.3831 149.888 19.3831C149.907 19.3818 149.922 19.3818 149.934 19.3818H150.148C150.162 19.3818 150.18 19.3805 150.203 19.3818C150.224 19.3818 150.247 19.3845 150.27 19.3894C150.291 19.3946 150.31 19.4045 150.323 19.4199C150.332 19.4288 150.34 19.4441 150.349 19.4671C150.356 19.4885 150.361 19.5064 150.361 19.5192V19.6029C150.361 19.6157 150.356 19.6334 150.347 19.6563C150.339 19.679 150.327 19.697 150.316 19.7095C150.304 19.7171 150.289 19.7223 150.267 19.7259C150.246 19.7298 150.217 19.7322 150.179 19.7322H150.087C150.022 19.7335 149.973 19.7564 149.94 19.7994C149.906 19.844 149.889 19.9024 149.889 19.9759C149.889 20.0179 149.894 20.0536 149.903 20.0815C149.912 20.1107 149.925 20.1362 149.941 20.1589C149.957 20.1831 149.975 20.2071 149.996 20.235L150.285 20.6315H150.941L150.468 20.1284H150.552C150.635 20.1271 150.701 20.1081 150.749 20.07C150.799 20.0333 150.834 19.985 150.857 19.9266C150.88 19.8683 150.895 19.807 150.902 19.7423C150.908 19.6787 150.912 19.6193 150.91 19.5646C150.912 19.5049 150.909 19.4413 150.904 19.3753C150.899 19.3091 150.884 19.2468 150.858 19.1884C150.834 19.13 150.792 19.0831 150.735 19.0461C150.702 19.0271 150.654 19.012 150.59 19.0015C150.526 18.9901 150.44 18.9851 150.331 18.9851H149.66C149.572 18.9851 149.501 18.9864 149.449 18.989C149.397 18.9916 149.356 18.9966 149.33 19.0044C149.303 19.012 149.283 19.0234 149.271 19.0385C149.256 19.0537 149.246 19.073 149.24 19.0956C149.233 19.1173 149.229 19.1389 149.227 19.1592C149.225 19.1796 149.225 19.1947 149.225 19.2062V20.6315H149.759V19.5648H149.759Z" fill="white"/>
<path d="M148.513 20.6127C148.555 20.7462 148.621 20.8744 148.714 20.9977C148.808 21.1145 148.91 21.2073 149.019 21.2759C149.13 21.3431 149.244 21.394 149.362 21.4258C149.481 21.4589 149.601 21.4792 149.722 21.4878C149.843 21.498 149.962 21.5019 150.079 21.5006C150.23 21.5016 150.381 21.4954 150.533 21.4789C150.685 21.4625 150.831 21.4255 150.972 21.3671C151.113 21.3087 151.242 21.2185 151.36 21.0965C151.465 20.9834 151.546 20.8578 151.599 20.7204C151.654 20.582 151.689 20.4383 151.708 20.2885C151.726 20.1399 151.735 19.9923 151.733 19.8464C151.735 19.7575 151.732 19.6595 151.725 19.5516C151.718 19.4449 151.703 19.3331 151.677 19.2187C151.652 19.1045 151.611 18.9924 151.557 18.8832C151.501 18.774 151.426 18.6736 151.329 18.5808C151.211 18.4703 151.082 18.389 150.94 18.3368C150.799 18.2847 150.656 18.2506 150.508 18.2352C150.361 18.2201 150.217 18.2135 150.079 18.2146C149.988 18.2135 149.885 18.2159 149.773 18.2237C149.659 18.23 149.543 18.248 149.422 18.2745C149.3 18.3014 149.181 18.3457 149.067 18.4041C148.951 18.4638 148.846 18.5451 148.752 18.6494C148.648 18.7701 148.572 18.9022 148.525 19.0446C148.478 19.1866 148.45 19.3266 148.438 19.4663C148.427 19.606 148.423 19.7317 148.424 19.8461C148.423 19.9616 148.427 20.0849 148.437 20.2157C148.447 20.3474 148.473 20.4793 148.513 20.6127ZM148.94 19.6295C148.943 19.5521 148.952 19.4721 148.966 19.3894C148.98 19.3068 149.002 19.2268 149.032 19.1493C149.063 19.0732 149.103 19.0057 149.157 18.9473C149.216 18.8853 149.286 18.8355 149.366 18.8C149.446 18.7656 149.529 18.7391 149.615 18.7239C149.702 18.7075 149.784 18.6971 149.866 18.6934C149.946 18.6898 150.017 18.6869 150.079 18.6882C150.146 18.6869 150.223 18.6898 150.306 18.6947C150.389 18.6984 150.474 18.7099 150.561 18.7265C150.647 18.743 150.728 18.7682 150.805 18.804C150.882 18.8397 150.947 18.8866 151.002 18.9476C151.045 18.9984 151.082 19.0607 151.11 19.1355C151.139 19.2106 151.162 19.2917 151.178 19.3782C151.195 19.4645 151.206 19.5508 151.212 19.6373C151.22 19.7236 151.223 19.8039 151.223 19.8777C151.224 19.9285 151.221 19.9931 151.216 20.0732C151.21 20.1532 151.197 20.2382 151.178 20.3283C151.158 20.4198 151.127 20.5074 151.084 20.5937C151.042 20.6789 150.983 20.7525 150.91 20.8148C150.845 20.8656 150.771 20.9062 150.687 20.9354C150.605 20.9646 150.521 20.985 150.437 20.999C150.353 21.0116 150.279 21.0207 150.215 21.0243C150.151 21.0269 150.105 21.0282 150.079 21.0282C149.938 21.0282 149.804 21.0155 149.677 20.9902C149.55 20.9646 149.437 20.9266 149.337 20.8757C149.237 20.8249 149.16 20.7616 149.103 20.6852C149.07 20.6406 149.04 20.5822 149.015 20.5098C148.99 20.4373 148.971 20.3461 148.957 20.2353C148.943 20.1248 148.935 19.9903 148.935 19.8315C148.935 19.7731 148.937 19.7056 148.94 19.6295Z" fill="white"/>
</svg>
