<svg width="16" height="16" viewBox="0 0 16 16" fill="none" xmlns="http://www.w3.org/2000/svg">
<path fill-rule="evenodd" clip-rule="evenodd" d="M0.520404 3.28586L0.520671 3.28559C0.532432 3.27149 0.54486 3.25792 0.558224 3.24475L2.06569 1.75247C2.48131 1.34099 3.15967 1.34285 3.57302 1.7566L5.63029 3.81601C6.04364 4.22976 6.04177 4.90506 5.62601 5.31654L4.2002 6.72793C4.67716 7.71401 5.39963 8.73214 6.33378 9.66739C7.26632 10.6011 8.28319 11.3249 9.26946 11.8053L10.6966 10.3926C11.1122 9.9811 11.7906 9.98296 12.2039 10.3968L14.2612 12.4563C14.6746 12.87 14.6727 13.5453 14.2569 13.9568L12.7737 15.4251C12.7536 15.4473 12.733 15.4692 12.7116 15.4903C11.2936 16.894 7.41506 15.2999 4.04852 11.9298C0.681976 8.55946 -0.897657 4.68954 0.520404 3.28586Z" fill="white"/>
<path fill-rule="evenodd" clip-rule="evenodd" d="M8.1987 3.09888C8.77576 3.20012 9.33933 3.38837 9.86747 3.66335C10.3791 3.9297 10.8586 4.27706 11.2862 4.70517C11.7112 5.13062 12.056 5.60743 12.3206 6.11656C12.5932 6.64126 12.7794 7.20108 12.8789 7.77461L11.7196 7.97603C11.6412 7.52383 11.4928 7.07949 11.2746 6.65949C11.065 6.25625 10.7897 5.8763 10.4484 5.53466C10.107 5.19288 9.72555 4.9163 9.31955 4.7049C8.89751 4.48513 8.44968 4.33519 7.99316 4.2551L8.1987 3.09888Z" fill="white"/>
<path fill-rule="evenodd" clip-rule="evenodd" d="M8.40362 0C9.35006 0.129179 10.281 0.411085 11.1564 0.845851C11.9976 1.26359 12.7868 1.82341 13.4881 2.52531C14.1929 3.23081 14.753 4.02265 15.1684 4.86518C15.5998 5.74003 15.8768 6.67089 16 7.61772L14.8311 7.77044C14.7243 6.94907 14.4837 6.14127 14.1094 5.38203C13.7475 4.64806 13.2621 3.96065 12.6535 3.35148C12.046 2.7435 11.3604 2.25751 10.6279 1.89379C9.8726 1.51875 9.06621 1.27503 8.24365 1.16275L8.40362 0Z" fill="white"/>
</svg>
