<svg width="50" height="48" viewBox="0 0 50 48" fill="none" xmlns="http://www.w3.org/2000/svg">
<path d="M14.5259 21.0445C14.1892 21.5181 13.9549 22.0424 13.8599 22.6365C13.8343 22.7984 13.818 22.9621 13.8118 23.127M19.8468 19.072C18.4017 18.5009 16.5428 18.9677 15.1564 20.3154" stroke="white" stroke-width="1.9199" stroke-miterlimit="22.9256" stroke-linecap="round" stroke-linejoin="round"/>
<path d="M24.7054 21.4625C23.5676 15.7368 17.0802 14.4609 13.0708 18.7771C7.32187 24.9665 15.7893 34.278 24.7054 39.6058M24.7054 21.4625C25.8431 15.7368 32.3299 14.4609 36.3406 18.7771C42.0888 24.9665 33.6214 34.278 24.7054 39.6058" stroke="white" stroke-width="1.9199" stroke-miterlimit="22.9256" stroke-linecap="round" stroke-linejoin="round"/>
<path fill-rule="evenodd" clip-rule="evenodd" d="M24.6522 1L24.7059 1.02749L24.7597 1C33.6845 5.06377 41.6477 10.6646 48.4118 18.1842C46.8623 27.76 43.6639 36.9891 39.3771 45.9888C30.0968 47.3591 19.3151 47.3591 10.0341 45.9888C5.74794 36.9884 2.54953 27.76 1 18.1842C7.7642 10.6646 15.7274 5.06377 24.6522 1Z" stroke="white" stroke-width="1.9199" stroke-miterlimit="22.9256" stroke-linecap="round" stroke-linejoin="round"/>
</svg>
