<svg width="47" height="48" viewBox="0 0 47 48" fill="none" xmlns="http://www.w3.org/2000/svg">
<path fill-rule="evenodd" clip-rule="evenodd" d="M2.77135 11.4127H43.9345C44.9085 11.4127 45.7058 12.21 45.7058 13.1841V18.4518C45.7058 19.4259 44.9085 20.2232 43.9345 20.2232H2.77135C1.79727 20.2232 1 19.4259 1 18.4518V13.1841C1.00062 12.21 1.79727 11.4127 2.77135 11.4127Z" stroke="white" stroke-width="1.9199" stroke-miterlimit="22.9256" stroke-linecap="round" stroke-linejoin="round"/>
<path fill-rule="evenodd" clip-rule="evenodd" d="M3.53113 20.2231H43.1754V41.3767C43.1754 44.304 40.7804 46.6995 37.8526 46.6995H8.85389C5.92603 46.6995 3.53113 44.304 3.53113 41.3767V20.2231Z" stroke="white" stroke-width="1.9199" stroke-miterlimit="22.9256" stroke-linecap="round" stroke-linejoin="round"/>
<path d="M23.6338 20.2231V11.4133C24.576 7.82626 26.0012 4.33795 29.0928 2.90775C32.5511 1.30762 35.5027 3.73125 34.5049 6.89092C33.5964 9.76755 29.0253 10.5517 24.711 11.4133" stroke="white" stroke-width="1.9199" stroke-miterlimit="22.9256" stroke-linecap="round" stroke-linejoin="round"/>
<path d="M23.4694 10.9559C22.1123 7.22394 20.3022 2.40665 16.2297 1.17328C13.3931 0.314789 11.1444 2.78341 12.2228 5.55507C13.7755 9.54324 18.2603 10.8191 22.8602 11.4127" stroke="white" stroke-width="1.9199" stroke-miterlimit="22.9256" stroke-linecap="round" stroke-linejoin="round"/>
<path fill-rule="evenodd" clip-rule="evenodd" d="M23.645 27.7446C20.2241 24.48 16.4759 24.4781 14.2728 27.7446C12.6664 30.1264 13.663 33.4828 15.6786 35.8984C17.9536 38.6238 20.7615 40.6094 23.645 42.3652C26.5291 40.6094 29.337 38.6238 31.6113 35.8984C33.6269 33.4828 34.6235 30.1264 33.0171 27.7446C30.814 24.4781 27.0658 24.48 23.645 27.7446Z" stroke="white" stroke-width="1.9199" stroke-miterlimit="22.9256" stroke-linecap="round" stroke-linejoin="round"/>
</svg>
